<svg data-v-423bf9ae="" xmlns="http://www.w3.org/2000/svg" viewBox="0 0 522 97" class="iconLeft"><!----><!----><!----><g data-v-423bf9ae="" id="c2113714-8c39-4c7d-a8f9-20a017ec8b80" fill="#331B2B" transform="matrix(4.474273299755366,0,0,4.474273299755366,118.36847632915735,3.6666048862217053)"><path d="M5.12 3.72C2.59 3.72 0.70 5.78 0.70 8.78C0.70 11.84 2.44 13.78 4.94 13.78C7.31 13.78 8.53 12.32 8.85 10.53L8.86 10.39L8.33 10.39L8.30 10.53C7.98 12.11 6.93 13.31 4.97 13.31C2.94 13.31 1.29 11.76 1.29 8.75C1.29 5.85 3.08 4.19 5.08 4.19C6.92 4.19 7.99 5.32 8.30 6.85L8.33 6.99L8.86 6.99L8.85 6.85C8.53 5.08 7.32 3.72 5.12 3.72ZM12.99 6.01C12.39 6.01 11.86 6.30 11.49 6.80L11.10 7.70L11.10 6.20L10.57 6.20L10.57 13.58L11.10 13.58L11.10 9.49C11.10 7.25 12.04 6.38 13.37 6.48L13.37 6.05C13.26 6.02 13.13 6.01 12.99 6.01ZM17.28 6.01C15.09 6.01 13.76 7.62 13.76 9.90C13.76 12.17 15.09 13.78 17.28 13.78C19.46 13.78 20.79 12.17 20.79 9.90C20.79 7.62 19.46 6.01 17.28 6.01ZM17.28 13.33C15.71 13.33 14.35 12.18 14.35 9.90C14.35 7.60 15.71 6.45 17.28 6.45C18.84 6.45 20.22 7.60 20.22 9.90C20.22 12.18 18.84 13.33 17.28 13.33ZM31.37 6.20L30.80 6.20L28.76 13.03L26.75 6.22L26.05 6.22L24.07 13.06L21.97 6.20L21.35 6.20L23.70 13.58L24.42 13.58L26.40 6.76L28.39 13.58L29.04 13.58ZM38.12 8.25C37.98 6.85 37.09 6.01 35.56 6.01C34.69 6.01 33.91 6.31 33.35 7.01L33.01 7.78L33.01 6.20L32.48 6.20L32.48 13.58L33.01 13.58L33.01 9.49C33.01 7.38 34.20 6.47 35.50 6.47C36.83 6.47 37.46 7.25 37.59 8.40C37.63 8.78 37.65 9.10 37.65 9.59L37.65 13.58L38.18 13.58L38.18 9.46C38.18 8.86 38.16 8.62 38.12 8.25ZM46.93 3.72C44.39 3.72 42.50 5.78 42.50 8.78C42.50 11.84 44.24 13.78 46.75 13.78C49.11 13.78 50.33 12.32 50.65 10.53L50.67 10.39L50.13 10.39L50.11 10.53C49.78 12.11 48.73 13.31 46.77 13.31C44.74 13.31 43.09 11.76 43.09 8.75C43.09 5.85 44.88 4.19 46.89 4.19C48.72 4.19 49.80 5.32 50.11 6.85L50.13 6.99L50.67 6.99L50.65 6.85C50.33 5.08 49.13 3.72 46.93 3.72ZM52.86 3.29L52.33 3.29L52.33 11.80C52.33 12.29 52.33 12.54 52.35 12.82C52.37 13.47 52.71 13.65 53.17 13.65C53.34 13.65 53.52 13.65 53.69 13.61L53.69 13.19C53.09 13.26 52.91 13.15 52.88 12.68C52.86 12.47 52.86 12.21 52.86 11.79ZM57.99 6.01C55.80 6.01 54.47 7.62 54.47 9.90C54.47 12.17 55.80 13.78 57.99 13.78C60.17 13.78 61.50 12.17 61.50 9.90C61.50 7.62 60.17 6.01 57.99 6.01ZM57.99 13.33C56.42 13.33 55.06 12.18 55.06 9.90C55.06 7.60 56.42 6.45 57.99 6.45C59.56 6.45 60.93 7.60 60.93 9.90C60.93 12.18 59.56 13.33 57.99 13.33ZM63.74 12.43C63.73 12.24 63.73 12.05 63.73 11.69L63.73 6.68L65.16 6.68L65.16 6.26L63.73 6.26L63.73 4.69L63.20 4.69L63.20 6.26L62.29 6.26L62.29 6.68L63.20 6.68L63.20 11.66C63.20 12.08 63.20 12.33 63.22 12.64C63.28 13.36 63.66 13.68 64.39 13.68C64.65 13.68 64.95 13.66 65.17 13.64L65.17 13.22C64.12 13.37 63.80 13.16 63.74 12.43ZM72.14 8.25C72.00 6.85 71.11 6.01 69.58 6.01C68.71 6.01 67.93 6.31 67.37 7.01L67.03 7.78L67.03 3.22L66.50 3.22L66.50 13.58L67.03 13.58L67.03 9.49C67.03 7.38 68.22 6.47 69.52 6.47C70.85 6.45 71.48 7.25 71.61 8.40C71.65 8.78 71.67 9.10 71.67 9.59L71.67 13.58L72.20 13.58L72.20 9.46C72.20 8.86 72.18 8.62 72.14 8.25ZM74.41 4.26C74.19 4.26 74.00 4.44 74.00 4.66C74.00 4.89 74.19 5.07 74.41 5.07C74.63 5.07 74.82 4.89 74.82 4.66C74.82 4.44 74.63 4.26 74.41 4.26ZM74.68 13.58L74.68 6.20L74.14 6.20L74.14 13.58ZM82.35 8.25C82.21 6.85 81.31 6.01 79.79 6.01C78.92 6.01 78.13 6.31 77.57 7.01L77.24 7.78L77.24 6.20L76.71 6.20L76.71 13.58L77.24 13.58L77.24 9.49C77.24 7.38 78.43 6.47 79.73 6.47C81.06 6.47 81.69 7.25 81.82 8.40C81.86 8.78 81.87 9.10 81.87 9.59L81.87 13.58L82.40 13.58L82.40 9.46C82.40 8.86 82.39 8.62 82.35 8.25ZM90.19 6.16L89.66 6.16L89.66 7.70L89.24 6.85C88.69 6.26 88.03 6.01 87.18 6.01C85.37 6.01 83.76 7.32 83.76 9.95C83.76 12.18 85.01 13.78 87.00 13.78C87.93 13.78 88.62 13.52 89.22 12.85L89.66 12.01L89.66 12.26C89.66 12.84 89.66 13.17 89.64 13.64C89.60 15.15 88.72 16.17 87.05 16.17C85.82 16.17 84.78 15.64 84.62 14.35L84.60 14.17L84.06 14.17L84.08 14.35C84.29 16.00 85.48 16.63 87.02 16.63C88.97 16.63 90.12 15.47 90.17 13.68C90.19 13.22 90.19 12.64 90.19 11.65ZM87.05 13.33C85.29 13.33 84.35 11.75 84.35 9.88C84.35 7.81 85.53 6.45 87.18 6.45C88.31 6.45 89.66 7.17 89.66 9.45L89.66 10.16C89.66 12.52 88.45 13.33 87.05 13.33Z"></path></g><defs data-v-423bf9ae=""><linearGradient data-v-423bf9ae="" gradientTransform="rotate(25)" id="53bd9e5d-69f5-4147-9e04-508970930510" x1="0%" y1="0%" x2="100%" y2="0%"><stop data-v-423bf9ae="" offset="0%" style="stop-color: rgb(140, 72, 210); stop-opacity: 1;"></stop><stop data-v-423bf9ae="" offset="100%" style="stop-color: rgb(207, 112, 90); stop-opacity: 1;"></stop></linearGradient></defs><g data-v-423bf9ae="" id="47b414e3-6976-4228-baa2-16d99f31415f" transform="matrix(1.03358883327908,0,0,1.03358883327908,-0.7772745635973806,-4.223066946403485)" stroke="none" fill="url(#53bd9e5d-69f5-4147-9e04-508970930510)"><path d="M49.904 90.909C27.718 90.909 10.017 85 4.369 75H2.463c0 13 20.396 22.468 47.441 22.468C76.951 97.468 97.348 88 97.348 75h-1.905c-5.649 10-23.351 15.909-45.539 15.909z"></path><path d="M5.23 40.323c.193 0 .377-.032.563-.057l-.116.042c6.812 9.136 5.37 23.726 4.329 30.027.862 2.524 3.72 5.132 8.091 7.356a38.92 38.92 0 0 0 2.262 1.059c1.104.476 2.267.916 3.473 1.331 7.338 2.521 16.435 3.893 26.072 3.893 9.64 0 18.734-1.372 26.075-3.893a49.888 49.888 0 0 0 3.472-1.331 38.88 38.88 0 0 0 2.262-1.059c4.372-2.225 7.229-4.832 8.091-7.356-1.043-6.302-2.484-20.892 4.328-30.027l-.116-.042c.188.024.371.057.564.057a4.424 4.424 0 1 0-2.451-.743l-.216-.078s-2.424 12.396-9.99 14.615c-7.569 2.221-7.872-10.579-7.872-17.744 0-5.889.137-11.43.184-13.218.069.004.138.011.208.011a5.254 5.254 0 1 0-5.254-5.254 5.25 5.25 0 0 0 3.281 4.867l-5.281 17.355s-7.653 23.36-12.916-4.568c-2.506-13.3-3.116-18.026-3.223-19.709a5.708 5.708 0 0 0 4.737-5.621 5.708 5.708 0 0 0-5.709-5.707c-.059 0-.115.007-.174.009-.058-.002-.114-.009-.173-.009a5.706 5.706 0 1 0-.971 11.328c-.106 1.683-.718 6.409-3.224 19.709-5.263 27.929-12.915 4.568-12.915 4.568l-5.28-17.355a5.253 5.253 0 0 0-1.974-10.12 5.254 5.254 0 0 0 0 10.507c.069 0 .137-.007.206-.011.049 1.788.185 7.329.185 13.218 0 7.165-.303 19.965-7.87 17.744-7.568-2.22-9.991-14.615-9.991-14.615l-.216.078a4.419 4.419 0 0 0 1.974-3.68 4.425 4.425 0 1 0-4.425 4.423zm10.735 28.032a1.175 1.175 0 1 1 1.174-1.174c0 .648-.526 1.174-1.174 1.174zm5.084 3.226a1.857 1.857 0 1 1 0-3.714 1.857 1.857 0 0 1 0 3.714zm7.039 3.03a2.15 2.15 0 1 1 0-4.301 2.15 2.15 0 0 1 0 4.301zm9.286 3.676a3.87 3.87 0 1 1 0-7.742 3.87 3.87 0 0 1 0 7.742zm12.415 3.367a6.36 6.36 0 1 1 0-12.719 6.36 6.36 0 0 1 0 12.719zm12.415-3.367a3.87 3.87 0 1 1 0-7.742 3.87 3.87 0 0 1 0 7.742zm9.287-3.676a2.15 2.15 0 1 1 0-4.3 2.15 2.15 0 0 1 0 4.3zm7.039-3.03a1.858 1.858 0 1 1 0-3.716 1.858 1.858 0 0 1 0 3.716zm5.083-3.226a1.174 1.174 0 1 1 .001-2.347 1.174 1.174 0 0 1-.001 2.347zm4.693-3.813a.978.978 0 1 1-1.957 0 .978.978 0 0 1 1.957 0zM13.899 55c0 6 18.976 10.087 36.005 10.087C66.935 65.087 85.909 61 85.909 55h1.815c0 7-19.229 11.902-37.82 11.902C31.314 66.902 12.085 62 12.085 55h1.814zm-1.648 8.564a.979.979 0 1 1-.002 1.958.979.979 0 0 1 .002-1.958z"></path></g><!----></svg>